<?xml version="1.0" standalone="no"?><!-- Generator: Gravit.io --><svg xmlns="http://www.w3.org/2000/svg" xmlns:xlink="http://www.w3.org/1999/xlink" style="isolation:isolate" viewBox="0 0 600 600" width="600" height="600"><defs><clipPath id="_clipPath_Mo248fz0SbxQfwXvZZVvtmvSMvEe7zbx"><rect width="600" height="600"/></clipPath></defs><g clip-path="url(#_clipPath_Mo248fz0SbxQfwXvZZVvtmvSMvEe7zbx)"><path d=" M 591.347 381.926 L 475.897 528.98 L 121.897 528.98 Q 3.397 394.842 8.897 362.342 Q 40.397 362.842 111.506 260.342 Q 167.538 361.842 203.968 362.342 Q 240.397 362.842 304.756 260.342 Q 365.774 361.842 403.086 362.342 Q 440.397 362.842 496.289 260.342 Q 549.397 363.842 590.347 365.926 Q 590.397 378.842 591.347 381.926 Z " fill="rgb(0,140,255)" vector-effect="non-scaling-stroke" stroke-width="4" stroke="rgb(255,255,255)" stroke-linejoin="miter" stroke-linecap="square" stroke-miterlimit="3"/><path d=" M 350.907 437.968 L 339.689 425.635 C 319.695 403.653 287.148 403.577 267.052 425.466 L 255.065 438.523 C 234.969 460.412 222.125 454.309 226.4 424.904 L 229.132 406.109 C 233.407 376.703 212.835 350.85 183.22 348.412 L 168.105 347.167 C 138.49 344.729 135.092 330.268 160.521 314.895 L 174.768 306.281 C 200.197 290.908 207.743 258.168 191.608 233.216 L 182.216 218.69 C 166.081 193.738 175.424 182.332 203.066 193.235 L 217.347 198.868 C 244.989 209.772 274.638 195.601 283.515 167.243 L 289.157 149.218 C 298.034 120.86 312.197 120.937 320.765 149.39 L 326.038 166.901 C 334.605 195.354 363.983 209.55 391.6 198.583 L 406.532 192.653 C 434.149 181.687 443.324 192.945 427.007 217.779 L 416.976 233.048 C 400.659 257.882 408.058 290.525 433.488 305.897 L 446.941 314.029 C 472.37 329.401 468.982 343.968 439.378 346.538 L 424.095 347.866 C 394.491 350.436 373.64 376.437 377.561 405.892 L 380.029 424.428 C 383.95 453.883 370.901 459.95 350.907 437.968 Z  M 256.121 295.136 C 256.121 268.858 277.455 247.523 303.734 247.523 C 330.012 247.523 351.347 268.858 351.347 295.136 C 351.347 321.414 330.012 342.749 303.734 342.749 C 277.455 342.749 256.121 321.414 256.121 295.136 Z " fill-rule="evenodd" fill="rgb(225,242,255)" vector-effect="non-scaling-stroke" stroke-width="4" stroke="rgb(69,171,255)" stroke-linejoin="miter" stroke-linecap="square" stroke-miterlimit="3"/><path d=" M 15.545 336.416 Q 71.577 437.916 108.006 438.416 Q 144.436 438.916 208.795 336.416 Q 269.813 437.916 307.124 438.416 Q 344.436 438.916 400.327 336.416 Q 453.436 439.916 494.385 442 Q 535.334 444.084 583 336.416 L 592.449 381.584 L 477 532.251 L 128 541.04 L 10 382.509 L 15.545 336.416 Z " fill="rgb(164,216,255)" vector-effect="non-scaling-stroke" stroke-width="4" stroke="rgb(255,255,255)" stroke-linejoin="miter" stroke-linecap="square" stroke-miterlimit="3"/><path d=" M 419.43 590.926 L 299.269 590.736 L 179.107 590.546 C 173.588 590.537 166.366 586.985 162.99 582.62 L 88.309 486.057 L 13.628 389.495 C 10.251 385.129 8.498 377.214 9.715 371.83 L 36.917 251.515 L 64.119 131.199 C 65.336 125.816 70.345 119.469 75.299 117.035 L 183.792 63.724 L 292.286 10.413 C 297.239 7.979 305.275 7.994 310.219 10.447 L 418.335 64.095 L 526.451 117.742 C 531.395 120.195 536.368 126.564 537.549 131.955 L 563.929 252.348 L 590.309 372.741 C 591.49 378.132 589.689 386.039 586.289 390.386 L 510.94 486.725 L 435.591 583.065 C 432.19 587.412 424.949 590.935 419.43 590.926 Z " fill="none" vector-effect="non-scaling-stroke" stroke-width="15" stroke="rgb(69,171,255)" stroke-linejoin="miter" stroke-linecap="square" stroke-miterlimit="3"/><path d=" M 433.675 587.501 L 174.457 587.501 L 117.438 516.718 Q 243.162 495.93 313.073 497.056 Q 382.984 498.182 490.029 516.718 L 433.675 587.501 Z " fill="rgb(69,171,255)"/><path d=" M 243.821 558.716 L 253.196 527.857 L 253.196 527.857 Q 253.782 525.708 256.614 525.708 L 256.614 525.708 L 256.614 525.708 Q 257.981 525.708 259.006 526.734 L 259.006 526.734 L 259.006 526.734 Q 260.032 527.759 260.032 528.882 L 260.032 528.882 L 260.032 528.882 Q 260.032 530.005 259.836 530.689 L 259.836 530.689 L 248.508 563.99 L 248.508 563.99 Q 248.02 565.357 246.75 566.333 L 246.75 566.333 L 246.75 566.333 Q 245.481 567.31 243.821 567.31 L 243.821 567.31 L 243.821 567.31 Q 242.258 567.31 240.94 566.333 L 240.94 566.333 L 240.94 566.333 Q 239.621 565.357 239.133 563.892 L 239.133 563.892 L 230.637 537.427 L 222.141 563.892 L 222.141 563.892 Q 221.555 565.259 220.286 566.284 L 220.286 566.284 L 220.286 566.284 Q 219.016 567.31 217.356 567.31 L 217.356 567.31 L 217.356 567.31 Q 215.793 567.31 214.524 566.333 L 214.524 566.333 L 214.524 566.333 Q 213.254 565.357 212.766 563.99 L 212.766 563.99 L 201.438 530.689 L 201.438 530.689 Q 201.243 530.005 201.243 528.882 L 201.243 528.882 L 201.243 528.882 Q 201.243 527.759 202.268 526.734 L 202.268 526.734 L 202.268 526.734 Q 203.293 525.708 204.661 525.708 L 204.661 525.708 L 204.661 525.708 Q 207.493 525.708 208.078 527.857 L 208.078 527.857 L 217.356 558.716 L 226.731 528.638 L 226.731 528.638 Q 227.121 527.368 228.196 526.538 L 228.196 526.538 L 228.196 526.538 Q 229.27 525.708 230.637 525.708 L 230.637 525.708 L 230.637 525.708 Q 232.004 525.708 233.078 526.49 L 233.078 526.49 L 233.078 526.49 Q 234.153 527.271 234.543 528.638 L 234.543 528.638 L 243.821 558.716 L 243.821 558.716 Z  M 269.7 528.15 L 269.7 528.15 L 269.7 528.15 Q 276.438 525.22 283.664 525.318 L 283.664 525.318 L 283.664 525.318 Q 291.77 525.318 296.262 530.298 L 296.262 530.298 L 296.262 530.298 Q 300.266 534.595 300.364 541.04 L 300.364 541.04 L 300.364 563.697 L 300.364 563.697 Q 300.364 565.161 299.241 566.236 L 299.241 566.236 L 299.241 566.236 Q 298.118 567.31 296.555 567.31 L 296.555 567.31 L 296.555 567.31 Q 295.09 567.31 294.016 566.236 L 294.016 566.236 L 294.016 566.236 Q 292.942 565.161 292.942 563.697 L 292.942 563.697 L 292.942 561.646 L 292.942 561.646 Q 290.793 563.892 287.18 565.796 L 287.18 565.796 L 287.18 565.796 Q 283.567 567.7 278 567.7 L 278 567.7 L 278 567.7 Q 272.434 567.7 268.723 564.478 L 268.723 564.478 L 268.723 564.478 Q 264.914 561.157 264.914 555.786 L 264.914 555.786 L 264.914 555.786 Q 264.914 549.829 269.407 546.411 L 269.407 546.411 L 269.407 546.411 Q 274.289 542.7 283.274 542.798 L 283.274 542.798 L 292.942 542.798 L 292.942 542.115 L 292.942 542.115 Q 292.942 536.743 290.354 534.497 L 290.354 534.497 L 290.354 534.497 Q 287.766 532.251 282.297 532.251 L 282.297 532.251 L 282.297 532.251 Q 277.707 532.251 271.653 534.107 L 271.653 534.107 L 271.653 534.107 Q 271.067 534.302 270.237 534.302 L 270.237 534.302 L 270.237 534.302 Q 269.407 534.302 268.528 533.472 L 268.528 533.472 L 268.528 533.472 Q 267.649 532.642 267.6 530.835 L 267.6 530.835 L 267.6 530.835 Q 267.551 529.029 269.7 528.15 Z  M 272.239 554.907 L 272.239 554.907 L 272.239 554.907 Q 272.239 561.353 280.735 561.255 L 280.735 561.255 L 280.735 561.255 Q 284.446 561.255 287.717 559.448 L 287.717 559.448 L 287.717 559.448 Q 290.989 557.642 292.942 555.396 L 292.942 555.396 L 292.942 548.657 L 284.348 548.657 L 284.348 548.657 Q 278.684 548.657 275.461 550.073 L 275.461 550.073 L 275.461 550.073 Q 272.239 551.49 272.239 554.907 Z  M 327.414 558.911 L 339.621 527.759 L 339.621 527.759 Q 340.598 525.611 343.137 525.708 L 343.137 525.708 L 343.137 525.708 Q 344.407 525.708 345.481 526.782 L 345.481 526.782 L 345.481 526.782 Q 346.555 527.857 346.555 528.833 L 346.555 528.833 L 346.555 528.833 Q 346.555 530.103 346.164 531.079 L 346.164 531.079 L 332.2 564.38 L 332.2 564.38 Q 331.614 565.552 330.491 566.431 L 330.491 566.431 L 330.491 566.431 Q 329.368 567.31 327.805 567.31 L 327.805 567.31 L 327.024 567.31 L 327.024 567.31 Q 325.559 567.31 324.387 566.431 L 324.387 566.431 L 324.387 566.431 Q 323.215 565.552 322.629 564.38 L 322.629 564.38 L 308.762 531.079 L 308.762 531.079 Q 308.371 530.103 308.371 528.98 L 308.371 528.98 L 308.371 528.98 Q 308.371 527.857 309.348 526.782 L 309.348 526.782 L 309.348 526.782 Q 310.325 525.708 311.692 525.708 L 311.692 525.708 L 311.692 525.708 Q 314.231 525.708 315.207 527.759 L 315.207 527.759 L 327.414 558.911 L 327.414 558.911 Z  M 359.739 549.146 L 359.739 549.146 Q 360.422 554.517 363.889 557.691 L 363.889 557.691 L 363.889 557.691 Q 367.356 560.865 373.459 560.865 L 373.459 560.865 L 373.459 560.865 Q 379.563 560.865 383.86 558.911 L 383.86 558.911 L 383.86 558.911 Q 385.227 558.228 386.301 558.179 L 386.301 558.179 L 386.301 558.179 Q 387.375 558.13 388.303 559.009 L 388.303 559.009 L 388.303 559.009 Q 389.231 559.888 389.231 560.962 L 389.231 560.962 L 389.231 560.962 Q 389.231 563.111 387.522 563.99 L 387.522 563.99 L 387.522 563.99 Q 385.813 564.868 384.446 565.552 L 384.446 565.552 L 384.446 565.552 Q 383.078 566.236 381.516 566.724 L 381.516 566.724 L 381.516 566.724 Q 377.903 567.7 373.118 567.7 L 373.118 567.7 L 373.118 567.7 Q 363.254 567.7 357.834 562.183 L 357.834 562.183 L 357.834 562.183 Q 352.414 556.665 352.414 546.509 L 352.414 546.509 L 352.414 546.509 Q 352.414 537.72 357.004 531.861 L 357.004 531.861 L 357.004 531.861 Q 362.18 525.318 371.555 525.318 L 371.555 525.318 L 371.555 525.318 Q 380.539 525.318 385.715 531.372 L 385.715 531.372 L 385.715 531.372 Q 390.598 537.036 390.598 545.532 L 390.598 545.532 L 390.598 545.532 Q 390.598 546.997 389.573 548.072 L 389.573 548.072 L 389.573 548.072 Q 388.547 549.146 386.985 549.146 L 386.985 549.146 L 359.739 549.146 L 359.739 549.146 Z  M 371.555 531.47 L 371.555 531.47 L 371.555 531.47 Q 364.426 531.47 361.203 537.818 L 361.203 537.818 L 361.203 537.818 Q 360.032 540.064 359.739 543.189 L 359.739 543.189 L 383.371 543.189 L 383.371 543.189 Q 383.078 537.525 379.172 534.204 L 379.172 534.204 L 379.172 534.204 Q 376.047 531.47 371.555 531.47 Z " fill-rule="evenodd" fill="rgb(255,255,255)"/></g></svg>